<?xml version="1.0" encoding="UTF-8" standalone="no"?>
<!DOCTYPE svg PUBLIC "-//W3C//DTD SVG 1.1//EN" "http://www.w3.org/Graphics/SVG/1.1/DTD/svg11.dtd">
<svg width="100%" height="100%" viewBox="0 0 3109 2747" version="1.1" xmlns="http://www.w3.org/2000/svg" xmlns:xlink="http://www.w3.org/1999/xlink" xml:space="preserve" xmlns:serif="http://www.serif.com/" style="fill-rule:evenodd;clip-rule:evenodd;stroke-linejoin:round;stroke-miterlimit:2;">
    <g transform="matrix(1,0,0,1,-445.540009,-254.106896)">
        <g>
            <g transform="matrix(1,0,0,1,0,-45.553874)">
                <rect x="0" y="0" width="4000" height="4000" style="fill:transparent;"/>
            </g>
            <g transform="matrix(1,0,0,1,0,-133.157997)">
                <path d="M2000,2994.82L1084.22,3134.25L1247.22,2655.74L445.54,2078.49L718.128,1936.63L547.62,1393.61L1056.28,1536.34L1162.15,1169.89L1456.27,1510.92L1296.53,744.595L1711.33,946.54L2000,387.265L2288.66,946.54L2703.46,744.595L2543.73,1510.92L2837.85,1169.89L2943.71,1536.34L3452.38,1393.61L3281.87,1936.63L3554.46,2078.49L2752.78,2655.74L2915.78,3134.25L2000,2994.82Z"/>
            </g>
            <g transform="matrix(1,0,0,1,0,-133.157997)">
                <path d="M2000,667.563L1767.87,1117.3L1475.9,975.151L1683.5,1971.14L1219.7,1433.35L1144.22,1694.61L741.5,1581.6L873.226,2001.1L690.128,2096.39L1399.62,2607.25L1274.34,2975.03L1935.56,2874.34L1935.56,2807.61L1450.33,2256.2L1935.56,2625.36L2000,1760.76L2064.429,2625.36L2549.67,2256.2L2064.429,2807.61L2064.429,2874.34L2725.66,2975.03L2600.38,2607.25L3309.87,2096.39L3126.77,2001.1L3258.5,1581.6L2855.77,1694.61L2780.3,1433.35L2316.49,1971.14L2524.1,975.151L2232.12,1117.3L2000,667.563Z" style="fill:white;"/>
            </g>
            <g transform="matrix(1,0,0,1,0,-133.157997)">
                <path d="M1450.33,2256.2L1819.74,2801.18L1382.77,2879.71L1399.62,2607.25L1274.34,2975.03L1935.56,2874.34L1935.56,2807.61L1450.33,2256.2Z" style="fill:rgb(230,230,230);"/>
            </g>
            <g transform="matrix(1,0,0,1,0,-133.157997)">
                <path d="M1450.33,2256.2L1935.56,2625.36L2000,1760.76L1864.04,2466.9L1450.33,2256.2Z" style="fill:rgb(230,230,230);"/>
            </g>
            <g transform="matrix(1,0,0,1,0,-133.157997)">
                <path d="M933.685,1790.29L1235.74,1812.44L1269.97,1603.02L1683.5,1971.14L1219.7,1433.35L1144.22,1694.61L741.5,1581.6L873.226,2001.1L690.128,2096.39L1258.25,2505.45L881.333,2124.57L1008.19,2052.071L933.685,1790.29Z" style="fill:rgb(230,230,230);"/>
            </g>
            <g transform="matrix(1,0,0,1,0,-133.157997)">
                <path d="M1475.9,975.151L1683.5,1971.14L1610.29,1204.28L1835.83,1272.75L2000,988.568L2164.17,1272.75L2389.7,1204.28L2316.49,1971.14L2524.1,975.151L2232.12,1117.3L2000,667.563L1767.87,1117.3L1475.9,975.151Z" style="fill:rgb(230,230,230);"/>
            </g>
            <g transform="matrix(1,0,0,1,0,-133.157997)">
                <path d="M3066.31,1790.29L2764.25,1812.44L2730.02,1603.02L2316.49,1971.14L2780.3,1433.35L2855.77,1694.61L3258.5,1581.6L3126.77,2001.1L3309.87,2096.39L2741.75,2505.45L3118.66,2124.57L2991.81,2052.071L3066.31,1790.29Z" style="fill:rgb(230,230,230);"/>
            </g>
            <g transform="matrix(1,0,0,1,0,-133.157997)">
                <path d="M2549.67,2256.2L2180.25,2801.18L2617.23,2879.71L2600.38,2607.25L2725.66,2975.03L2064.429,2874.34L2064.429,2807.61L2549.67,2256.2Z" style="fill:rgb(230,230,230);"/>
            </g>
            <g transform="matrix(1,0,0,1,0,-133.157997)">
                <path d="M2549.67,2256.2L2064.429,2625.36L2000,1760.76L2135.95,2466.9L2549.67,2256.2Z" style="fill:rgb(230,230,230);"/>
            </g>
        </g>
    </g>
</svg>
